HIERARCHY
ROOT Hips
{
	OFFSET 0.00000 0.00000 0.00000
	CHANNELS 6 Xposition Yposition Zposition Zrotation Yrotation Xrotation 
	JOINT LHipJoint
	{
		OFFSET 0 0 0
		CHANNELS 3 Zrotation Yrotation Xrotation
		JOINT LeftHip
		{
			OFFSET 1.64549 -1.70879 0.84566
			CHANNELS 3 Zrotation Yrotation Xrotation
			JOINT LeftKnee
			{
				OFFSET 2.24963 -6.18082 0.00000
				CHANNELS 3 Zrotation Yrotation Xrotation
				JOINT LeftAnkle
				{
					OFFSET 2.71775 -7.46697 0.00000
					CHANNELS 3 Zrotation Yrotation Xrotation
					JOINT LeftToe
					{
						OFFSET 0.18768 -0.51564 2.24737
						CHANNELS 3 Zrotation Yrotation Xrotation
						End Site
						{
							OFFSET 0.00000 -0.00000 1.15935
						}
					}
				}
			}
		}
	}
	JOINT RHipJoint
	{
		OFFSET 0 0 0
		CHANNELS 3 Zrotation Yrotation Xrotation
		JOINT RightHip
		{
			OFFSET -1.58830 -1.70879 0.84566
			CHANNELS 3 Zrotation Yrotation Xrotation
			JOINT RightKnee
			{
				OFFSET -2.25006 -6.18201 0.00000
				CHANNELS 3 Zrotation Yrotation Xrotation
				JOINT RightAnkle
				{
					OFFSET -2.72829 -7.49593 0.00000
					CHANNELS 3 Zrotation Yrotation Xrotation
					JOINT RightToe
					{
						OFFSET -0.21541 -0.59185 2.10643
						CHANNELS 3 Zrotation Yrotation Xrotation
						End Site
						{
							OFFSET -0.00000 -0.00000 1.09838
						}
					}
				}
			}
		}
	}
	JOINT lowerback
	{
		OFFSET 0 0 0
		CHANNELS 3 Zrotation Yrotation Xrotation
		JOINT Chest
		{
			OFFSET 0.03142 2.10496 -0.11038
			CHANNELS 3 Zrotation Yrotation Xrotation
			JOINT Chest2
			{
				OFFSET -0.01863 2.10897 -0.06956
				CHANNELS 3 Zrotation Yrotation Xrotation
				JOINT lowerneck
				{
					OFFSET 0 0 0
					CHANNELS 3 Zrotation Yrotation Xrotation
					JOINT Neck
					{
						OFFSET -0.02267 1.73238 0.00451
						CHANNELS 3 Zrotation Yrotation Xrotation
						JOINT Head
						{
							OFFSET -0.05808 1.54724 -0.61749
							CHANNELS 3 Zrotation Yrotation Xrotation
							End Site
							{
								OFFSET -0.01396 1.71468 -0.21082
							}
						}
					}
				}
				JOINT LeftCollar
				{
					OFFSET 0 0 0
					CHANNELS 3 Zrotation Yrotation Xrotation
					JOINT LeftShoulder
					{
						OFFSET 3.44898 0.50298 0.21920
CHANNELS 3 Zrotation Xrotation Yrotation
						JOINT LeftElbow
						{
OFFSET 0 -5.419170 -0.000000
CHANNELS 3 Zrotation Xrotation Yrotation
							JOINT LeftWrist
							{
OFFSET 0 -2.443730 0.000000
CHANNELS 3 Zrotation Xrotation Yrotation
								JOINT lhand
								{
									OFFSET 0 0 0
CHANNELS 3 Zrotation Xrotation Yrotation
									JOINT LFingers
									{
OFFSET 0 -0.727500 0.000000
CHANNELS 3 Zrotation Xrotation Yrotation
										End Site
										{
OFFSET 0 -0.586530 0.000000
										}
									}
								}
								JOINT LThumb
								{
OFFSET 0 0.000000 0.000000
CHANNELS 3 Zrotation Xrotation Yrotation
									End Site
									{
OFFSET 0 -0.595490 0.595490
									}
								}
							}
						}
					}
				}
				JOINT RightCollar
				{
					OFFSET 0 0 0
					CHANNELS 3 Zrotation Yrotation Xrotation
					JOINT RightShoulder
					{
						OFFSET -3.23015 0.55830 0.31051
CHANNELS 3 Zrotation Xrotation Yrotation
						JOINT RightElbow
						{
OFFSET 0 -5.589760 0.000140
CHANNELS 3 Zrotation Xrotation Yrotation
							JOINT RightWrist
							{
OFFSET 0 -2.480600 0.000000
CHANNELS 3 Zrotation Xrotation Yrotation
								JOINT rhand
								{
									OFFSET 0 0 0
CHANNELS 3 Zrotation Xrotation Yrotation
									JOINT RFingers
									{
OFFSET 0 -0.816010 0.000000
CHANNELS 3 Zrotation Xrotation Yrotation
										End Site
										{
OFFSET 0 -0.657890 0.000000
										}
									}
								}
								JOINT RThumb
								{
OFFSET 0 0.000000 0.000000
CHANNELS 3 Zrotation Xrotation Yrotation
									End Site
									{
OFFSET 0 -0.667930 0.667930
									}
								}
							}
						}
					}
				}
			}
		}
	}
}
MOTION
Frames: 9
Frame Time: 0.008333333333333333
-3.103476 18.001969 16.767051 337.461962 -70.622694 398.845621 0.000000 0.000000 0.000000 1.875519 -31.632523 -38.768578 2.522787 9.878490 28.584870 -0.676168 15.232611 -0.374584 1.773556 -8.345603 -23.787773 0.000000 0.000000 0.000000 -3.871603 37.728569 -33.972617 -1.412468 -7.512317 21.244447 -13.770537 19.598146 -71.503302 -10.482872 -17.672177 61.089879 10.240042 5.778524 5.422798 6.325002 9.159186 -7.469818 -0.045747 3.771966 -10.650793 -11.898689 -10.660641 -9.060856 9.742419 -16.171661 25.571250 3.262205 -7.652337 11.616543 0.000000 0.000000 0.000000 61.878739 -31.166931 -5.505604 18.018036 -28.179205 4.558290 -1.595830 3.472957 -16.419708 0.000000 0.000000 0.000000 -7.125000 0.000000 0.000000 -26.831705 44.562117 -0.319971 0.000000 0.000000 0.000000 -1.104692 -44.319302 -56.261064 -2.849523 -4.921338 -0.122471 -10.091002 67.023204 -15.031165 0.000000 0.000000 0.000000 7.125000 0.000000 0.000000 11.804518 14.938143 8.547692
-3.232182 17.874870 16.923879 332.051858 -73.107207 404.867357 0.000000 0.000000 0.000000 2.335938 -30.089663 -40.814840 2.662842 10.126614 29.389128 -0.511774 14.524910 2.368613 1.498388 -7.731890 -21.902773 0.000000 0.000000 0.000000 -3.547659 37.543420 -32.419203 -1.243171 -7.066224 19.913153 -14.337869 21.630634 -73.249178 -9.983653 -17.394137 59.424782 10.771231 6.119254 4.358213 6.240792 9.451928 -7.529037 -0.323966 3.893152 -9.965604 -11.895777 -10.318166 -9.125835 9.604843 -15.665384 25.728298 3.294478 -7.444559 11.608785 0.000000 0.000000 0.000000 60.550982 -29.849261 -6.556406 18.618749 -28.939450 4.846345 -3.023470 2.400728 -16.155858 0.000000 0.000000 0.000000 -7.125000 0.000000 0.000000 -27.925165 44.160167 -0.631618 0.000000 0.000000 0.000000 -1.350182 -42.442837 -53.156339 -2.954392 -5.101345 -0.131753 -7.956589 62.679697 -14.655824 0.000000 0.000000 0.000000 7.125000 0.000000 0.000000 13.247526 15.441612 9.500478
-3.369672 17.742889 17.075618 324.548027 -75.441048 412.872127 0.000000 0.000000 0.000000 2.384152 -28.055597 -42.646973 2.863886 10.468654 30.510823 -0.324416 13.846113 5.074323 0.820373 -4.367357 -12.362561 0.000000 0.000000 0.000000 -2.851021 36.671400 -31.118627 -1.107254 -6.682992 18.780541 -14.447983 23.311536 -73.611363 -9.015685 -16.803293 56.122656 11.207837 6.490009 3.330383 6.218448 9.771153 -7.571755 -0.478311 4.038693 -9.309245 -12.089174 -10.003246 -9.064162 9.515031 -15.178622 25.810524 3.376951 -7.264859 11.572745 0.000000 0.000000 0.000000 59.250263 -28.503792 -7.502649 19.123778 -29.572005 5.091942 -4.397837 1.773323 -15.767465 0.000000 0.000000 0.000000 -7.125000 0.000000 0.000000 -28.901532 43.661552 -1.056127 0.000000 0.000000 0.000000 -1.648955 -40.552198 -50.004991 -3.158898 -5.451995 -0.150667 -6.117262 58.256611 -14.039358 0.000000 0.000000 0.000000 7.125000 0.000000 0.000000 14.509838 16.141774 10.237122
-3.515449 17.611531 17.231252 315.944083 -77.897792 421.702868 0.000000 0.000000 0.000000 1.140611 -25.910217 -43.537487 3.130240 10.899145 31.944771 -0.214659 11.901140 4.776815 0.007985 -0.547461 -1.504346 0.000000 0.000000 0.000000 -1.946577 33.829326 -30.082331 -1.015553 -6.410623 17.980934 -13.913818 23.746749 -71.998215 -9.310335 -16.960289 57.095003 11.158274 6.745325 2.376665 6.089547 9.899149 -7.454028 -0.475490 4.138848 -8.580793 -12.268285 -9.653722 -8.986633 9.475261 -14.649618 25.816065 3.482091 -7.060574 11.501281 0.000000 0.000000 0.000000 58.055922 -27.157756 -7.713103 19.347389 -29.847883 5.202771 -5.898914 2.194281 -14.887672 0.000000 0.000000 0.000000 -7.125000 0.000000 0.000000 -29.750516 42.721817 -1.860139 0.000000 0.000000 0.000000 -1.765451 -38.823069 -46.569436 -3.399529 -5.864084 -0.174396 -4.791220 53.604464 -13.273500 0.000000 0.000000 0.000000 7.125000 0.000000 0.000000 15.446595 16.943495 10.669150
-3.655445 17.475633 17.385482 304.860212 -80.403130 432.805629 0.000000 0.000000 0.000000 -1.294635 -23.451471 -43.460624 3.453665 11.391047 33.615819 -0.133436 7.600694 1.841939 0.010719 -0.660609 -1.815390 0.000000 0.000000 0.000000 -2.562082 33.018249 -28.744840 -0.973166 -6.280030 17.599095 -14.104629 25.712823 -72.633921 -10.392914 -17.624862 60.793583 10.518936 6.866742 1.696908 5.901533 9.873807 -7.320835 -0.252995 4.196590 -8.086955 -12.299261 -9.276165 -8.709893 9.336271 -14.083880 25.660534 3.541032 -6.845012 11.302113 0.000000 0.000000 0.000000 56.956602 -25.647837 -7.684521 19.538020 -30.081640 5.297918 -7.595083 3.139850 -14.065330 0.000000 0.000000 0.000000 -7.125000 0.000000 0.000000 -30.761906 41.821314 -2.711329 0.000000 0.000000 0.000000 -1.989565 -37.078216 -42.994826 -3.650636 -6.293298 -0.201028 -3.619897 48.947443 -12.527779 0.000000 0.000000 0.000000 7.125000 0.000000 0.000000 16.290244 17.704342 11.017352
-3.787475 17.334206 17.526357 287.975871 -81.970331 449.462324 0.000000 0.000000 0.000000 -3.423934 -20.846650 -43.063302 3.819930 11.912222 35.428430 -0.048638 4.262957 -0.770117 0.207200 -2.185180 -6.054727 0.000000 0.000000 0.000000 -4.222032 36.184856 -26.665643 -0.977977 -6.294893 17.642531 -15.538549 30.620706 -77.087208 -10.322366 -17.587191 60.560515 10.048353 6.989305 1.460363 5.825296 9.955700 -7.284657 -0.063280 4.271865 -7.956235 -12.221535 -9.030257 -8.234394 9.266059 -13.758944 25.336931 3.575417 -6.728716 11.029423 0.000000 0.000000 0.000000 55.831240 -24.245428 -7.675222 19.735446 -30.322001 5.397315 -9.326478 4.440960 -13.654262 0.000000 0.000000 0.000000 -7.125000 0.000000 0.000000 -31.960744 41.280023 -3.322805 0.000000 0.000000 0.000000 -2.560255 -35.222954 -39.747432 -3.944533 -6.794522 -0.234653 -2.189348 44.428009 -11.807031 0.000000 0.000000 0.000000 7.125000 0.000000 0.000000 17.317553 18.435098 11.485191
-3.915919 17.196598 17.647564 266.663170 -82.242845 470.228538 0.000000 0.000000 0.000000 -4.786596 -18.675973 -42.557294 4.197148 12.414529 37.220160 -0.014641 3.830438 -4.197786 0.368596 -3.812651 -10.560366 0.000000 0.000000 0.000000 -5.036436 39.389608 -24.446676 -1.022104 -6.430898 18.040187 -17.063115 34.750499 -81.655516 -10.384222 -17.620093 60.764755 10.034329 6.990172 1.595559 5.783819 9.950740 -7.141376 -0.108519 4.272465 -7.868901 -12.398380 -8.774104 -7.807032 9.591282 -13.455591 24.852958 3.784710 -6.601263 10.762047 0.000000 0.000000 0.000000 54.904901 -22.682824 -7.751808 20.103890 -30.765982 5.585051 -10.105725 5.307945 -14.054665 0.000000 0.000000 0.000000 -7.125000 0.000000 0.000000 -32.754831 41.541874 -3.182210 0.000000 0.000000 0.000000 -2.897157 -33.683971 -36.259898 -4.221033 -7.265204 -0.268240 -0.996718 40.144646 -11.103878 0.000000 0.000000 0.000000 7.125000 0.000000 0.000000 18.192556 19.131783 11.831567
-4.037383 17.072906 17.767348 245.394462 -81.624561 490.794968 0.000000 0.000000 0.000000 -5.969872 -17.075986 -41.942301 4.536472 12.839795 38.775177 0.074327 4.051151 -7.951801 0.195265 -2.845623 -7.849296 0.000000 0.000000 0.000000 -5.333194 40.685773 -22.609772 -1.084924 -6.618851 18.591436 -17.975312 36.007531 -84.303247 -10.551048 -17.707976 61.314407 10.076248 6.846432 1.857227 5.496330 9.757922 -6.797348 -0.436403 4.191618 -7.588028 -12.347668 -8.411224 -7.558328 10.099612 -13.020214 24.137449 4.032288 -6.366978 10.426054 0.000000 0.000000 0.000000 54.485636 -21.057170 -7.372398 20.505133 -31.246009 5.791199 -10.559707 5.796001 -14.434175 0.000000 0.000000 0.000000 -7.125000 0.000000 0.000000 -33.281001 41.818188 -2.991824 0.000000 0.000000 0.000000 -2.339085 -33.056833 -32.252154 -4.339715 -7.466888 -0.283290 -1.267441 36.358650 -10.382106 0.000000 0.000000 0.000000 7.125000 0.000000 0.000000 18.083435 19.814054 11.468202
-4.149838 16.956015 17.909640 227.036242 -80.300145 508.493334 0.000000 0.000000 0.000000 -7.708602 -15.520622 -41.168668 4.798023 13.151774 39.940843 0.232080 3.963628 -11.313432 0.217817 -2.999456 -8.277605 0.000000 0.000000 0.000000 -5.336092 38.658425 -21.897750 -1.168511 -6.860441 19.303043 -17.693789 33.811500 -83.441334 -10.710792 -17.790518 61.838742 9.838327 6.822083 2.244076 4.930435 9.738879 -6.534317 -0.937526 4.203943 -7.450597 -11.466966 -8.159385 -7.388764 10.206489 -12.766239 23.423595 3.966656 -6.178204 10.041381 0.000000 0.000000 0.000000 54.230395 -19.971950 -6.475862 20.617005 -31.378592 5.849235 -11.965096 7.058322 -13.767636 0.000000 0.000000 0.000000 -7.125000 0.000000 0.000000 -34.066626 41.095497 -3.797227 0.000000 0.000000 0.000000 -1.814149 -32.615404 -28.730736 -4.393879 -7.558723 -0.290432 -2.615115 32.741830 -10.001383 0.000000 0.000000 0.000000 7.125000 0.000000 0.000000 17.204367 20.153288 10.710541
